<svg width="49" height="49" viewBox="0 0 49 49" fill="none" xmlns="http://www.w3.org/2000/svg">
<path d="M27.7608 20.5555L29.0222 21.3672L29.0222 21.3672L27.7608 20.5555ZM18.8945 18.3939C18.8945 19.2223 19.5661 19.8939 20.3945 19.8939C21.223 19.8939 21.8945 19.2223 21.8945 18.3939H18.8945ZM22.8945 27.3939C22.8945 28.2223 23.5661 28.8939 24.3945 28.8939C25.223 28.8939 25.8945 28.2223 25.8945 27.3939H22.8945ZM25.8945 32.3939C25.8945 31.5655 25.223 30.8939 24.3945 30.8939C23.5661 30.8939 22.8945 31.5655 22.8945 32.3939H25.8945ZM22.8945 34.3939C22.8945 35.2223 23.5661 35.8939 24.3945 35.8939C25.223 35.8939 25.8945 35.2223 25.8945 34.3939H22.8945ZM42.8945 24.3939C42.8945 34.6112 34.6118 42.8939 24.3945 42.8939V45.8939C36.2687 45.8939 45.8945 36.268 45.8945 24.3939H42.8945ZM24.3945 42.8939C14.1773 42.8939 5.89453 34.6112 5.89453 24.3939H2.89453C2.89453 36.268 12.5204 45.8939 24.3945 45.8939V42.8939ZM5.89453 24.3939C5.89453 14.1767 14.1773 5.89392 24.3945 5.89392V2.89392C12.5204 2.89392 2.89453 12.5198 2.89453 24.3939H5.89453ZM24.3945 5.89392C34.6118 5.89392 42.8945 14.1767 42.8945 24.3939H45.8945C45.8945 12.5198 36.2687 2.89392 24.3945 2.89392V5.89392ZM26.8945 18.3939C26.8945 18.8939 26.7493 19.3553 26.4993 19.7438L29.0222 21.3672C29.5743 20.5091 29.8945 19.4866 29.8945 18.3939H26.8945ZM21.8945 18.3939C21.8945 17.0132 23.0138 15.8939 24.3945 15.8939V12.8939C21.357 12.8939 18.8945 15.3564 18.8945 18.3939H21.8945ZM24.3945 15.8939C25.7752 15.8939 26.8945 17.0132 26.8945 18.3939H29.8945C29.8945 15.3564 27.4321 12.8939 24.3945 12.8939V15.8939ZM22.8945 26.3939V27.3939H25.8945V26.3939H22.8945ZM26.4993 19.7438C26.2475 20.1352 25.9322 20.5402 25.5618 21.0005C25.2071 21.4413 24.7903 21.9466 24.4165 22.4604C23.6794 23.4735 22.8945 24.7954 22.8945 26.3939H25.8945C25.8945 25.7833 26.1951 25.1149 26.8423 24.2255C27.1606 23.788 27.5106 23.3641 27.8991 22.8812C28.272 22.4178 28.6763 21.9047 29.0222 21.3672L26.4993 19.7438ZM22.8945 32.3939V34.3939H25.8945V32.3939H22.8945Z" fill="#69B1D7"/>
</svg>
