<svg width="49" height="49" viewBox="0 0 49 49" fill="none" xmlns="http://www.w3.org/2000/svg">
<path d="M28.1079 20.7939L29.3693 21.6056L29.3693 21.6056L28.1079 20.7939ZM19.2417 18.6323C19.2417 19.4608 19.9133 20.1323 20.7417 20.1323C21.5701 20.1323 22.2417 19.4608 22.2417 18.6323H19.2417ZM23.2417 27.6323C23.2417 28.4608 23.9133 29.1323 24.7417 29.1323C25.5701 29.1323 26.2417 28.4608 26.2417 27.6323H23.2417ZM26.2417 32.6323C26.2417 31.8039 25.5701 31.1323 24.7417 31.1323C23.9133 31.1323 23.2417 31.8039 23.2417 32.6323H26.2417ZM23.2417 34.6323C23.2417 35.4608 23.9133 36.1323 24.7417 36.1323C25.5701 36.1323 26.2417 35.4608 26.2417 34.6323H23.2417ZM43.2417 24.6323C43.2417 34.8496 34.959 43.1323 24.7417 43.1323V46.1323C36.6158 46.1323 46.2417 36.5064 46.2417 24.6323H43.2417ZM24.7417 43.1323C14.5244 43.1323 6.2417 34.8496 6.2417 24.6323H3.2417C3.2417 36.5064 12.8676 46.1323 24.7417 46.1323V43.1323ZM6.2417 24.6323C6.2417 14.4151 14.5244 6.13232 24.7417 6.13232V3.13232C12.8676 3.13232 3.2417 12.7582 3.2417 24.6323H6.2417ZM24.7417 6.13232C34.959 6.13232 43.2417 14.4151 43.2417 24.6323H46.2417C46.2417 12.7582 36.6158 3.13232 24.7417 3.13232V6.13232ZM27.2417 18.6323C27.2417 19.1323 27.0965 19.5937 26.8465 19.9822L29.3693 21.6056C29.9215 20.7475 30.2417 19.725 30.2417 18.6323L27.2417 18.6323ZM22.2417 18.6323C22.2417 17.2516 23.361 16.1323 24.7417 16.1323V13.1323C21.7041 13.1323 19.2417 15.5948 19.2417 18.6323H22.2417ZM24.7417 16.1323C26.1224 16.1323 27.2417 17.2516 27.2417 18.6323L30.2417 18.6323C30.2417 15.5948 27.7793 13.1323 24.7417 13.1323V16.1323ZM23.2417 26.6323V27.6323H26.2417V26.6323H23.2417ZM26.8465 19.9822C26.5947 20.3736 26.2794 20.7786 25.909 21.2389C25.5543 21.6797 25.1375 22.185 24.7636 22.6988C24.0265 23.7119 23.2417 25.0338 23.2417 26.6323H26.2417C26.2417 26.0217 26.5423 25.3533 27.1894 24.4639C27.5077 24.0264 27.8577 23.6025 28.2463 23.1196C28.6191 22.6562 29.0235 22.1431 29.3693 21.6056L26.8465 19.9822ZM23.2417 32.6323V34.6323H26.2417V32.6323H23.2417Z" fill="#F07C4B"/>
</svg>
